<svg xml:space="preserve" width="256" height="256"><g style="stroke:none;stroke-width:0;stroke-dasharray:none;stroke-linecap:butt;stroke-linejoin:miter;stroke-miterlimit:10;fill:none;fill-rule:nonzero;opacity:1"><path d="M9.518 37.866H1a1 1 0 0 1 0-2h8.518a1 1 0 0 1 0 2zM57.872 77.188a2.347 2.347 0 0 1-1.665-.688l-9.587-9.587a2.36 2.36 0 0 1 0-3.332l9.447-9.447H29.181a1 1 0 1 1 0-2h29.301a.999.999 0 0 1 .707 1.707L48.034 64.995a.357.357 0 0 0 .001.505l9.585 9.585c.139.14.365.139.504 0l29.78-29.781a.35.35 0 0 0 .096-.266c.003-.15-.012-.257-.096-.341l-29.78-29.781c-.181-.18-.321-.184-.504 0l-9.586 9.585a.357.357 0 0 0 0 .504l11.154 11.153a1 1 0 0 1-.707 1.707h-40.14a1 1 0 0 1 0-2h37.727l-9.447-9.447a2.36 2.36 0 0 1 0-3.332l9.586-9.586c.892-.891 2.444-.89 3.332 0l29.78 29.78c.464.463.705 1.087.68 1.755.025.593-.216 1.216-.68 1.68l-29.78 29.781a2.343 2.343 0 0 1-1.667.692zM20.862 54.134h-8.295a1 1 0 1 1 0-2h8.295a1 1 0 1 1 0 2z" style="stroke:none;stroke-width:1;stroke-dasharray:none;stroke-linecap:butt;stroke-linejoin:miter;stroke-miterlimit:10;fill:#000;fill-rule:nonzero;opacity:1" transform="matrix(2.81 0 0 2.81 1.407 1.407)"/><path d="M41.533 46H7.307a1 1 0 0 1 0-2h34.226a1 1 0 0 1 0 2z" style="stroke:none;stroke-width:1;stroke-dasharray:none;stroke-linecap:butt;stroke-linejoin:miter;stroke-miterlimit:10;fill:#000;fill-rule:nonzero;opacity:1" transform="matrix(2.81 0 0 2.81 1.407 1.407)"/></g></svg>